<svg width="25" height="25" viewBox="0 0 25 25" fill="none" xmlns="http://www.w3.org/2000/svg">
<path d="M15.4722 3.76331C13.5167 3.309 11.4831 3.30901 9.52764 3.76332C8.39823 3.07007 7.53523 2.75195 6.908 2.61791C6.56699 2.54504 6.2967 2.52683 6.0934 2.53227C5.99194 2.53498 5.90798 2.54355 5.84109 2.55385C5.80769 2.55899 5.77866 2.56453 5.75396 2.56995C5.74161 2.57266 5.73035 2.57533 5.72019 2.5779L5.70576 2.58166L5.69916 2.58346L5.69601 2.58434L5.69297 2.58521C5.69296 2.58521 5.69297 2.5852 5.69297 2.58521C5.69229 2.58552 5.69565 2.5946 5.91274 3.3537L5.69297 2.58521C5.46572 2.6502 5.27885 2.81234 5.18247 3.02815C4.91342 3.63061 4.76647 4.28043 4.75012 4.94004C4.73797 5.43021 4.79811 5.91855 4.92784 6.3895C4.5869 6.8025 4.30908 7.26496 4.10439 7.76188C3.8357 8.41414 3.69827 9.11297 3.69994 9.8184C3.70014 12.3025 4.43301 13.9727 5.68192 15.0459C6.55698 15.7978 7.62074 16.1979 8.68586 16.427C8.50997 16.9157 8.46433 17.4327 8.49994 17.9595V18.9167C7.84818 19.0537 7.39812 19.0104 7.07728 18.9045C6.67411 18.7714 6.36501 18.5038 6.07018 18.1194C5.92087 17.9248 5.78329 17.711 5.63883 17.4771L5.54712 17.3278C5.43399 17.1431 5.3119 16.9438 5.18869 16.7621C4.88339 16.3118 4.43298 15.7492 3.70309 15.5576L2.92931 15.3544L2.52301 16.902L3.29679 17.1051C3.4239 17.1385 3.59123 17.2571 3.86443 17.66C3.96482 17.8081 4.06058 17.9643 4.16991 18.1428C4.20425 18.1988 4.24002 18.2572 4.2776 18.318C4.42777 18.5611 4.60001 18.8317 4.80069 19.0933C5.20586 19.6215 5.75752 20.1538 6.57584 20.4239C7.13809 20.6094 7.77361 20.654 8.49994 20.5424V23.5314C8.49994 23.9732 8.85811 24.3314 9.29994 24.3314H15.6999C16.1418 24.3314 16.4999 23.9732 16.4999 23.5314V17.8314C16.4999 17.3261 16.4779 16.8642 16.3357 16.4332C17.3955 16.2095 18.4508 15.809 19.3202 15.0565C20.5686 13.9757 21.2999 12.2905 21.2999 9.79137L21.2999 9.78879C21.2959 8.54276 20.8587 7.34252 20.072 6.38953C20.2018 5.91857 20.2619 5.43022 20.2498 4.94004C20.2334 4.28043 20.0865 3.63061 19.8174 3.02815C19.721 2.81228 19.534 2.6501 19.3067 2.58515L19.0869 3.35437C19.3067 2.58515 19.3044 2.5845 19.3037 2.58429L19.3005 2.58341L19.2939 2.58161L19.2795 2.57786C19.2694 2.57529 19.2581 2.57263 19.2458 2.56992C19.2211 2.56451 19.1921 2.55897 19.1586 2.55383C19.0918 2.54355 19.0078 2.53498 18.9063 2.53227C18.703 2.52684 18.4326 2.54503 18.0915 2.6179C17.4642 2.75194 16.6012 3.07006 15.4722 3.76331Z" fill="#F3F4F6"/>
</svg>
