<svg width="32" height="32" viewBox="0 0 32 32" fill="none" xmlns="http://www.w3.org/2000/svg">
<path d="M19.963 4.5759C17.3558 3.97016 14.6442 3.97016 12.037 4.57592C10.5311 3.65158 9.38047 3.22743 8.54416 3.0487C8.08949 2.95154 7.7291 2.92727 7.45803 2.93451C7.32275 2.93813 7.21081 2.94956 7.12162 2.96328C7.07708 2.97014 7.03838 2.97754 7.00544 2.98476C6.98897 2.98837 6.97397 2.99193 6.96041 2.99535L6.94117 3.00037L6.93237 3.00277L6.92818 3.00395L6.92412 3.0051C6.92411 3.0051 6.92413 3.00509 6.92412 3.0051C6.92321 3.00552 6.9277 3.01762 7.21716 4.02975L6.92412 3.0051C6.62113 3.09175 6.37196 3.30795 6.24346 3.59569C5.88472 4.39897 5.68879 5.2654 5.66699 6.14487C5.65078 6.79843 5.73098 7.44956 5.90396 8.07749C5.44936 8.62815 5.07894 9.24476 4.80601 9.90733C4.44776 10.777 4.26452 11.7088 4.26675 12.6494C4.26701 15.9615 5.24418 18.1884 6.9094 19.6193C8.07613 20.6219 9.49448 21.1554 10.9146 21.4608C10.6801 22.1124 10.6193 22.8017 10.6667 23.5041V24.7804C9.79773 24.9631 9.19766 24.9053 8.76987 24.7641C8.23231 24.5867 7.82018 24.2299 7.42707 23.7174C7.22798 23.4579 7.04455 23.1728 6.85194 22.861L6.72966 22.6619C6.57882 22.4156 6.41603 22.1499 6.25175 21.9076C5.84469 21.3073 5.24413 20.5571 4.27095 20.3016L3.23924 20.0307L2.69751 22.0942L3.72921 22.365C3.89869 22.4095 4.1218 22.5677 4.48608 23.1049C4.61992 23.3023 4.7476 23.5106 4.89337 23.7485C4.93917 23.8232 4.98685 23.901 5.03697 23.9822C5.23719 24.3063 5.46684 24.6671 5.73442 25.0159C6.27465 25.7201 7.01019 26.4299 8.10129 26.79C8.85095 27.0374 9.69831 27.0968 10.6667 26.948V30.9333C10.6667 31.5224 11.1443 32 11.7334 32H20.2667C20.8559 32 21.3334 31.5224 21.3334 30.9333V23.3333C21.3334 22.6596 21.3041 22.0437 21.1145 21.4691C22.5275 21.1708 23.9346 20.6369 25.0937 19.6335C26.7583 18.1925 27.7334 15.9455 27.7334 12.6133L27.7334 12.6099C27.7281 10.9485 27.1451 9.34819 26.0962 8.07753C26.2692 7.44959 26.3494 6.79844 26.3332 6.14487C26.3114 5.2654 26.1154 4.39897 25.7567 3.59569C25.6282 3.30786 25.3789 3.09163 25.0758 3.00503L24.7827 4.03065C25.0758 3.00503 25.0727 3.00416 25.0717 3.00388L25.0675 3.0027L25.0587 3.0003L25.0395 2.9953C25.026 2.99188 25.011 2.98832 24.9945 2.98472C24.9616 2.9775 24.9229 2.97011 24.8784 2.96326C24.7892 2.94955 24.6772 2.93812 24.5419 2.93451C24.2708 2.92727 23.9103 2.95153 23.4555 3.04869C22.6191 3.22741 21.4684 3.65156 19.963 4.5759Z" fill="#111827"/>
</svg>
