<svg width="24" height="25" viewBox="0 0 24 25" fill="none" xmlns="http://www.w3.org/2000/svg">
<path d="M12 8.33136C9.79086 8.33136 8 10.1222 8 12.3314C8 14.5405 9.79086 16.3314 12 16.3314C14.2091 16.3314 16 14.5405 16 12.3314C16 10.1222 14.2091 8.33136 12 8.33136Z" fill="#F3F4F6"/>
<path fill-rule="evenodd" clip-rule="evenodd" d="M7.2 0.33136C3.22355 0.33136 0 3.55491 0 7.53136V17.1314C0 21.1078 3.22355 24.3314 7.2 24.3314H16.8C20.7764 24.3314 24 21.1078 24 17.1314V7.53136C24 3.55491 20.7764 0.33136 16.8 0.33136H7.2ZM6.4 12.3314C6.4 9.23857 8.90721 6.73136 12 6.73136C15.0928 6.73136 17.6 9.23857 17.6 12.3314C17.6 15.4242 15.0928 17.9314 12 17.9314C8.90721 17.9314 6.4 15.4242 6.4 12.3314ZM17.6 6.73136H19.2V5.13136H17.6V6.73136Z" fill="#F3F4F6"/>
</svg>
