<svg width="32" height="32" viewBox="0 0 32 32" fill="none" xmlns="http://www.w3.org/2000/svg">
<path fill-rule="evenodd" clip-rule="evenodd" d="M0 3.2C0 1.43269 1.43269 0 3.2 0H28.8C30.5673 0 32 1.43269 32 3.2V28.8C32 30.5673 30.5673 32 28.8 32H3.2C1.43269 32 0 30.5673 0 28.8V3.2ZM10.6667 10.6667H8.53333V8.53333H10.6667V10.6667ZM8.53333 23.4667V12.8H10.6667V23.4667H8.53333ZM18.1333 14.9333C16.366 14.9333 14.9333 16.366 14.9333 18.1333V23.4667H12.8V12.8H14.9333V13.8663C15.8247 13.1967 16.9327 12.8 18.1333 12.8C21.0789 12.8 23.4667 15.1878 23.4667 18.1333V23.4667H21.3333V18.1333C21.3333 16.366 19.9006 14.9333 18.1333 14.9333Z" fill="#111827"/>
</svg>
