<svg width="24" height="25" viewBox="0 0 24 25" fill="none" xmlns="http://www.w3.org/2000/svg">
<path fill-rule="evenodd" clip-rule="evenodd" d="M0 2.73136C0 1.40588 1.07452 0.33136 2.4 0.33136H21.6C22.9255 0.33136 24 1.40588 24 2.73136V21.9314C24 23.2568 22.9255 24.3314 21.6 24.3314H2.4C1.07452 24.3314 0 23.2568 0 21.9314V2.73136ZM8 8.33136H6.4V6.73136H8V8.33136ZM6.4 17.9314V9.93136H8V17.9314H6.4ZM13.6 11.5314C12.2745 11.5314 11.2 12.6059 11.2 13.9314V17.9314H9.6V9.93136H11.2V10.7311C11.8685 10.2289 12.6995 9.93136 13.6 9.93136C15.8091 9.93136 17.6 11.7222 17.6 13.9314V17.9314H16V13.9314C16 12.6059 14.9255 11.5314 13.6 11.5314Z" fill="#F3F4F6"/>
</svg>
