<svg width="25" height="25" viewBox="0 0 25 25" fill="none" xmlns="http://www.w3.org/2000/svg">
<path d="M24.4637 2.67844C24.4425 2.35753 24.2311 2.08056 23.9271 1.97537C23.6232 1.87018 23.2858 1.95722 23.0707 2.19632C22.5178 2.81097 21.8189 3.22747 21.1096 3.41738C20.1231 2.49638 18.7976 1.93137 17.341 1.93137C14.2149 1.93137 11.6828 4.46918 11.6828 7.59712V8.30081C6.89678 7.93095 4.3374 4.29531 3.6468 2.45085C3.53517 2.15271 3.25739 1.94913 2.93948 1.93246C2.62157 1.9158 2.32403 2.08921 2.18183 2.37404C0.507069 5.72874 0.249028 8.98248 1.46624 11.7531C2.53251 14.1802 4.67689 16.1136 7.71613 17.3945C6.33486 18.3733 4.01006 19.5314 1.30006 19.5314C0.947634 19.5314 0.63672 19.762 0.534471 20.0993C0.432223 20.4365 0.562729 20.801 0.855827 20.9967C3.45439 22.7317 6.17783 22.7316 8.71095 22.7314L8.78847 22.7314C16.5655 22.7314 22.868 16.4174 22.868 8.63136V7.86609C23.4495 7.27509 23.9022 6.6701 24.1796 5.88798C24.4892 5.01527 24.5516 4.00333 24.4637 2.67844Z" fill="#F3F4F6"/>
</svg>
