<svg width="32" height="32" viewBox="0 0 32 32" fill="none" xmlns="http://www.w3.org/2000/svg">
<path d="M31.9517 3.12945C31.9233 2.70156 31.6414 2.33226 31.2362 2.19201C30.831 2.05175 30.3811 2.16781 30.0943 2.48662C29.3571 3.30615 28.4252 3.86148 27.4795 4.11469C26.1641 2.88669 24.3968 2.13334 22.4547 2.13334C18.2865 2.13334 14.9104 5.51709 14.9104 9.68768V10.6259C8.52903 10.1328 5.11654 5.28527 4.19573 2.82598C4.04689 2.42847 3.67653 2.15703 3.25264 2.13481C2.82876 2.11258 2.43203 2.3438 2.24244 2.72357C0.00942535 7.19651 -0.334629 11.5348 1.28832 15.229C2.71001 18.4652 5.56918 21.043 9.62151 22.7508C7.77982 24.056 4.68008 25.6 1.06675 25.6C0.596845 25.6 0.182293 25.9075 0.0459616 26.3572C-0.0903696 26.8069 0.0836384 27.2928 0.474436 27.5538C3.93919 29.8672 7.57044 29.8669 10.9479 29.8667L11.0513 29.8667C21.4207 29.8667 29.8239 21.4481 29.8239 11.0667V10.0463C30.5993 9.2583 31.2029 8.45165 31.5728 7.40882C31.9856 6.24521 32.0688 4.89596 31.9517 3.12945Z" fill="#111827"/>
</svg>
